<?xml version="1.0" encoding="UTF-8" standalone="no"?>
<!DOCTYPE svg PUBLIC "-//W3C//DTD SVG 1.1//EN"
 "http://www.w3.org/Graphics/SVG/1.1/DTD/svg11.dtd">
<!-- Generated by graphviz version 2.40.1 (20161225.0304)
 -->
<!-- Title: %3 Pages: 1 -->
<svg width="1216pt" height="224pt"
 viewBox="0.00 0.00 1216.45 224.15" xmlns="http://www.w3.org/2000/svg" xmlns:xlink="http://www.w3.org/1999/xlink">
<g id="graph0" class="graph" transform="scale(1 1) rotate(0) translate(4 220.1482)">
<title>%3</title>
<polygon fill="#ffffff" stroke="transparent" points="-4,4 -4,-220.1482 1212.4487,-220.1482 1212.4487,4 -4,4"/>
<!-- start -->
<g id="node1" class="node">
<title>start</title>
<text text-anchor="middle" x="27" y="-162.3" font-family="Times,serif" font-size="14.00" fill="#000000">start</text>
</g>
<!-- S0 -->
<g id="node2" class="node">
<title>S0</title>
<ellipse fill="none" stroke="#000000" cx="111.1482" cy="-166" rx="20.2975" ry="20.2975"/>
<text text-anchor="middle" x="111.1482" y="-162.3" font-family="Times,serif" font-size="14.00" fill="#000000">S0</text>
</g>
<!-- start&#45;&gt;S0 -->
<g id="edge1" class="edge">
<title>start&#45;&gt;S0</title>
<path fill="none" stroke="#000000" d="M54.0882,-166C62.5592,-166 71.9625,-166 80.6514,-166"/>
<polygon fill="#000000" stroke="#000000" points="80.785,-169.5001 90.785,-166 80.785,-162.5001 80.785,-169.5001"/>
</g>
<!-- S14 -->
<g id="node3" class="node">
<title>S14</title>
<ellipse fill="none" stroke="#000000" cx="198.9942" cy="-166" rx="24.8972" ry="24.8972"/>
<text text-anchor="middle" x="198.9942" y="-162.3" font-family="Times,serif" font-size="14.00" fill="#000000">S14</text>
</g>
<!-- S0&#45;&gt;S14 -->
<g id="edge2" class="edge">
<title>S0&#45;&gt;S14</title>
<path fill="none" stroke="#000000" d="M131.5227,-166C141.125,-166 152.8593,-166 163.833,-166"/>
<polygon fill="#000000" stroke="#000000" points="164.0268,-169.5001 174.0267,-166 164.0267,-162.5001 164.0268,-169.5001"/>
<text text-anchor="middle" x="152.7964" y="-169.8" font-family="Times,serif" font-size="14.00" fill="#000000">ε</text>
</g>
<!-- S1 -->
<g id="node4" class="node">
<title>S1</title>
<ellipse fill="none" stroke="#000000" cx="289.8403" cy="-196" rx="20.2975" ry="20.2975"/>
<text text-anchor="middle" x="289.8403" y="-192.3" font-family="Times,serif" font-size="14.00" fill="#000000">S1</text>
</g>
<!-- S14&#45;&gt;S1 -->
<g id="edge19" class="edge">
<title>S14&#45;&gt;S1</title>
<path fill="none" stroke="#000000" d="M222.863,-173.8821C234.527,-177.734 248.6597,-182.401 260.9309,-186.4533"/>
<polygon fill="#000000" stroke="#000000" points="260.1128,-189.869 270.7059,-189.6813 262.3078,-183.222 260.1128,-189.869"/>
<text text-anchor="middle" x="246.692" y="-185.8" font-family="Times,serif" font-size="14.00" fill="#000000">ε</text>
</g>
<!-- S3 -->
<g id="node7" class="node">
<title>S3</title>
<ellipse fill="none" stroke="#000000" cx="289.8403" cy="-137" rx="20.2975" ry="20.2975"/>
<text text-anchor="middle" x="289.8403" y="-133.3" font-family="Times,serif" font-size="14.00" fill="#000000">S3</text>
</g>
<!-- S14&#45;&gt;S3 -->
<g id="edge20" class="edge">
<title>S14&#45;&gt;S3</title>
<path fill="none" stroke="#000000" d="M222.863,-158.3806C234.4449,-154.6834 248.4607,-150.2092 260.6714,-146.3113"/>
<polygon fill="#000000" stroke="#000000" points="261.9487,-149.5777 270.4107,-143.2023 259.8199,-142.9092 261.9487,-149.5777"/>
<text text-anchor="middle" x="246.692" y="-156.8" font-family="Times,serif" font-size="14.00" fill="#000000">ε </text>
</g>
<!-- S2 -->
<g id="node5" class="node">
<title>S2</title>
<ellipse fill="none" stroke="#000000" cx="431.4331" cy="-196" rx="20.2975" ry="20.2975"/>
<text text-anchor="middle" x="431.4331" y="-192.3" font-family="Times,serif" font-size="14.00" fill="#000000">S2</text>
</g>
<!-- S1&#45;&gt;S2 -->
<g id="edge3" class="edge">
<title>S1&#45;&gt;S2</title>
<path fill="none" stroke="#000000" d="M310.1271,-196C333.8895,-196 373.4928,-196 400.955,-196"/>
<polygon fill="#000000" stroke="#000000" points="401.184,-199.5001 411.1839,-196 401.1839,-192.5001 401.184,-199.5001"/>
<text text-anchor="middle" x="331.4885" y="-199.8" font-family="Times,serif" font-size="14.00" fill="#000000">0</text>
</g>
<!-- S15 -->
<g id="node6" class="node">
<title>S15</title>
<ellipse fill="none" stroke="#000000" cx="1179.7509" cy="-171" rx="24.8692" ry="24.8692"/>
<ellipse fill="none" stroke="#000000" cx="1179.7509" cy="-171" rx="28.897" ry="28.897"/>
<text text-anchor="middle" x="1179.7509" y="-167.3" font-family="Times,serif" font-size="14.00" fill="#000000">S15</text>
</g>
<!-- S2&#45;&gt;S15 -->
<g id="edge4" class="edge">
<title>S2&#45;&gt;S15</title>
<path fill="none" stroke="#000000" d="M451.6422,-196.3164C472.1156,-196.6094 504.6973,-197 532.8777,-197 532.8777,-197 532.8777,-197 1083.3552,-197 1103.8303,-197 1125.9339,-191.4642 1143.8037,-185.5014"/>
<polygon fill="#000000" stroke="#000000" points="1144.9855,-188.796 1153.2585,-182.1772 1142.6637,-182.1922 1144.9855,-188.796"/>
<text text-anchor="middle" x="769.1684" y="-200.8" font-family="Times,serif" font-size="14.00" fill="#000000">ε</text>
</g>
<!-- S4 -->
<g id="node8" class="node">
<title>S4</title>
<ellipse fill="none" stroke="#000000" cx="373.1367" cy="-116" rx="20.2975" ry="20.2975"/>
<text text-anchor="middle" x="373.1367" y="-112.3" font-family="Times,serif" font-size="14.00" fill="#000000">S4</text>
</g>
<!-- S3&#45;&gt;S4 -->
<g id="edge5" class="edge">
<title>S3&#45;&gt;S4</title>
<path fill="none" stroke="#000000" d="M309.5803,-132.0233C319.7464,-129.4603 332.347,-126.2835 343.641,-123.4362"/>
<polygon fill="#000000" stroke="#000000" points="344.6973,-126.7795 353.5383,-120.941 342.986,-119.9919 344.6973,-126.7795"/>
<text text-anchor="middle" x="331.4885" y="-131.8" font-family="Times,serif" font-size="14.00" fill="#000000">1</text>
</g>
<!-- S9 -->
<g id="node9" class="node">
<title>S9</title>
<ellipse fill="none" stroke="#000000" cx="489.7295" cy="-111" rx="20.2975" ry="20.2975"/>
<text text-anchor="middle" x="489.7295" y="-107.3" font-family="Times,serif" font-size="14.00" fill="#000000">S9</text>
</g>
<!-- S4&#45;&gt;S9 -->
<g id="edge6" class="edge">
<title>S4&#45;&gt;S9</title>
<path fill="none" stroke="#000000" d="M393.4456,-115.1291C411.5578,-114.3523 438.3351,-113.204 459.0563,-112.3154"/>
<polygon fill="#000000" stroke="#000000" points="459.4213,-115.8031 469.2621,-111.8777 459.1213,-108.8095 459.4213,-115.8031"/>
<text text-anchor="middle" x="431.4331" y="-118.8" font-family="Times,serif" font-size="14.00" fill="#000000">ε</text>
</g>
<!-- S5 -->
<g id="node10" class="node">
<title>S5</title>
<ellipse fill="none" stroke="#000000" cx="576.026" cy="-111" rx="20.2975" ry="20.2975"/>
<text text-anchor="middle" x="576.026" y="-107.3" font-family="Times,serif" font-size="14.00" fill="#000000">S5</text>
</g>
<!-- S9&#45;&gt;S5 -->
<g id="edge11" class="edge">
<title>S9&#45;&gt;S5</title>
<path fill="none" stroke="#000000" d="M510.1806,-111C520.7128,-111 533.7672,-111 545.4679,-111"/>
<polygon fill="#000000" stroke="#000000" points="545.7217,-114.5001 555.7217,-111 545.7217,-107.5001 545.7217,-114.5001"/>
<text text-anchor="middle" x="532.8777" y="-114.8" font-family="Times,serif" font-size="14.00" fill="#000000">ε</text>
</g>
<!-- S7 -->
<g id="node13" class="node">
<title>S7</title>
<ellipse fill="none" stroke="#000000" cx="576.026" cy="-53" rx="20.2975" ry="20.2975"/>
<text text-anchor="middle" x="576.026" y="-49.3" font-family="Times,serif" font-size="14.00" fill="#000000">S7</text>
</g>
<!-- S9&#45;&gt;S7 -->
<g id="edge12" class="edge">
<title>S9&#45;&gt;S7</title>
<path fill="none" stroke="#000000" d="M506.7789,-99.5411C519.3076,-91.1205 536.5387,-79.5395 550.6777,-70.0366"/>
<polygon fill="#000000" stroke="#000000" points="552.6647,-72.9182 559.012,-64.4351 548.7599,-67.1085 552.6647,-72.9182"/>
<text text-anchor="middle" x="532.8777" y="-87.8" font-family="Times,serif" font-size="14.00" fill="#000000">ε </text>
</g>
<!-- S11 -->
<g id="node15" class="node">
<title>S11</title>
<ellipse fill="none" stroke="#000000" cx="898.564" cy="-111" rx="24.8972" ry="24.8972"/>
<text text-anchor="middle" x="898.564" y="-107.3" font-family="Times,serif" font-size="14.00" fill="#000000">S11</text>
</g>
<!-- S9&#45;&gt;S11 -->
<g id="edge13" class="edge">
<title>S9&#45;&gt;S11</title>
<path fill="none" stroke="#000000" d="M495.1283,-91.4109C505.24,-59.545 530.2581,0 576.026,0 576.026,0 576.026,0 769.1684,0 818.8126,0 858.9507,-47.6504 880.728,-80.5105"/>
<polygon fill="#000000" stroke="#000000" points="878.0372,-82.799 886.3761,-89.3346 883.9329,-79.0253 878.0372,-82.799"/>
<text text-anchor="middle" x="681.3224" y="-3.8" font-family="Times,serif" font-size="14.00" fill="#000000">ε &#160;&#160;&#160;&#160;&#160;&#160;&#160;</text>
</g>
<!-- S6 -->
<g id="node11" class="node">
<title>S6</title>
<ellipse fill="none" stroke="#000000" cx="681.3224" cy="-111" rx="20.2975" ry="20.2975"/>
<text text-anchor="middle" x="681.3224" y="-107.3" font-family="Times,serif" font-size="14.00" fill="#000000">S6</text>
</g>
<!-- S5&#45;&gt;S6 -->
<g id="edge7" class="edge">
<title>S5&#45;&gt;S6</title>
<path fill="none" stroke="#000000" d="M596.3282,-111C611.7691,-111 633.2704,-111 650.7834,-111"/>
<polygon fill="#000000" stroke="#000000" points="651.0825,-114.5001 661.0825,-111 651.0825,-107.5001 651.0825,-114.5001"/>
<text text-anchor="middle" x="628.6742" y="-114.8" font-family="Times,serif" font-size="14.00" fill="#000000">0</text>
</g>
<!-- S10 -->
<g id="node12" class="node">
<title>S10</title>
<ellipse fill="none" stroke="#000000" cx="769.1684" cy="-111" rx="24.8972" ry="24.8972"/>
<text text-anchor="middle" x="769.1684" y="-107.3" font-family="Times,serif" font-size="14.00" fill="#000000">S10</text>
</g>
<!-- S6&#45;&gt;S10 -->
<g id="edge8" class="edge">
<title>S6&#45;&gt;S10</title>
<path fill="none" stroke="#000000" d="M701.6968,-111C711.2992,-111 723.0335,-111 734.0072,-111"/>
<polygon fill="#000000" stroke="#000000" points="734.2009,-114.5001 744.2009,-111 734.2009,-107.5001 734.2009,-114.5001"/>
<text text-anchor="middle" x="722.9706" y="-114.8" font-family="Times,serif" font-size="14.00" fill="#000000">ε</text>
</g>
<!-- S10&#45;&gt;S9 -->
<g id="edge14" class="edge">
<title>S10&#45;&gt;S9</title>
<path fill="none" stroke="#000000" d="M747.3726,-123.1788C734.4659,-129.655 717.5415,-136.905 701.4706,-140 637.9302,-152.2368 619.6363,-151.0439 555.8777,-140 542.2677,-137.6425 528.1226,-131.9444 516.423,-126.217"/>
<polygon fill="#000000" stroke="#000000" points="517.7269,-122.9512 507.2358,-121.4718 514.5145,-129.1706 517.7269,-122.9512"/>
<text text-anchor="middle" x="628.6742" y="-152.8" font-family="Times,serif" font-size="14.00" fill="#000000"> &#160;&#160;ε &#160;&#160;</text>
</g>
<!-- S10&#45;&gt;S11 -->
<g id="edge15" class="edge">
<title>S10&#45;&gt;S11</title>
<path fill="none" stroke="#000000" d="M794.1172,-111C813.8081,-111 841.5192,-111 863.4504,-111"/>
<polygon fill="#000000" stroke="#000000" points="863.6919,-114.5001 873.6918,-111 863.6918,-107.5001 863.6919,-114.5001"/>
<text text-anchor="middle" x="833.8662" y="-114.8" font-family="Times,serif" font-size="14.00" fill="#000000"> &#160;&#160;&#160;&#160;ε &#160;&#160;&#160;&#160;</text>
</g>
<!-- S8 -->
<g id="node14" class="node">
<title>S8</title>
<ellipse fill="none" stroke="#000000" cx="681.3224" cy="-53" rx="20.2975" ry="20.2975"/>
<text text-anchor="middle" x="681.3224" y="-49.3" font-family="Times,serif" font-size="14.00" fill="#000000">S8</text>
</g>
<!-- S7&#45;&gt;S8 -->
<g id="edge9" class="edge">
<title>S7&#45;&gt;S8</title>
<path fill="none" stroke="#000000" d="M596.3282,-53C611.7691,-53 633.2704,-53 650.7834,-53"/>
<polygon fill="#000000" stroke="#000000" points="651.0825,-56.5001 661.0825,-53 651.0825,-49.5001 651.0825,-56.5001"/>
<text text-anchor="middle" x="628.6742" y="-56.8" font-family="Times,serif" font-size="14.00" fill="#000000">1</text>
</g>
<!-- S8&#45;&gt;S10 -->
<g id="edge10" class="edge">
<title>S8&#45;&gt;S10</title>
<path fill="none" stroke="#000000" d="M698.26,-64.183C709.957,-71.9059 725.8228,-82.3812 739.5809,-91.465"/>
<polygon fill="#000000" stroke="#000000" points="737.979,-94.6014 748.2526,-97.1904 741.8359,-88.7597 737.979,-94.6014"/>
<text text-anchor="middle" x="722.9706" y="-85.8" font-family="Times,serif" font-size="14.00" fill="#000000">ε</text>
</g>
<!-- S12 -->
<g id="node16" class="node">
<title>S12</title>
<ellipse fill="none" stroke="#000000" cx="990.9596" cy="-130" rx="24.8972" ry="24.8972"/>
<text text-anchor="middle" x="990.9596" y="-126.3" font-family="Times,serif" font-size="14.00" fill="#000000">S12</text>
</g>
<!-- S11&#45;&gt;S12 -->
<g id="edge16" class="edge">
<title>S11&#45;&gt;S12</title>
<path fill="none" stroke="#000000" d="M922.8399,-115.992C933.1557,-118.1133 945.37,-120.6251 956.5871,-122.9317"/>
<polygon fill="#000000" stroke="#000000" points="956.0251,-126.3893 966.5251,-124.9753 957.4351,-119.5328 956.0251,-126.3893"/>
<text text-anchor="middle" x="944.7618" y="-125.8" font-family="Times,serif" font-size="14.00" fill="#000000">0</text>
</g>
<!-- S13 -->
<g id="node17" class="node">
<title>S13</title>
<ellipse fill="none" stroke="#000000" cx="1083.3552" cy="-142" rx="24.8972" ry="24.8972"/>
<text text-anchor="middle" x="1083.3552" y="-138.3" font-family="Times,serif" font-size="14.00" fill="#000000">S13</text>
</g>
<!-- S12&#45;&gt;S13 -->
<g id="edge17" class="edge">
<title>S12&#45;&gt;S13</title>
<path fill="none" stroke="#000000" d="M1015.72,-133.2158C1025.8471,-134.5311 1037.7402,-136.0757 1048.7057,-137.4998"/>
<polygon fill="#000000" stroke="#000000" points="1048.4794,-140.9998 1058.847,-138.817 1049.3811,-134.0581 1048.4794,-140.9998"/>
<text text-anchor="middle" x="1037.1574" y="-140.8" font-family="Times,serif" font-size="14.00" fill="#000000">0</text>
</g>
<!-- S13&#45;&gt;S15 -->
<g id="edge18" class="edge">
<title>S13&#45;&gt;S15</title>
<path fill="none" stroke="#000000" d="M1107.1834,-149.1685C1117.8113,-152.3659 1130.5845,-156.2086 1142.4324,-159.773"/>
<polygon fill="#000000" stroke="#000000" points="1141.5151,-163.1519 1152.0995,-162.6813 1143.5318,-156.4487 1141.5151,-163.1519"/>
<text text-anchor="middle" x="1129.5531" y="-160.8" font-family="Times,serif" font-size="14.00" fill="#000000">ε</text>
</g>
</g>
</svg>
