<?xml version="1.0" encoding="UTF-8" standalone="no"?>
<!DOCTYPE svg PUBLIC "-//W3C//DTD SVG 1.1//EN"
 "http://www.w3.org/Graphics/SVG/1.1/DTD/svg11.dtd">
<!-- Generated by graphviz version 2.43.0 (0)
 -->
<!-- Title: %3 Pages: 1 -->
<svg width="924pt" height="208pt"
 viewBox="0.00 0.00 924.16 207.60" xmlns="http://www.w3.org/2000/svg" xmlns:xlink="http://www.w3.org/1999/xlink">
<g id="graph0" class="graph" transform="scale(1 1) rotate(0) translate(4 203.6)">
<title>%3</title>
<polygon fill="white" stroke="transparent" points="-4,4 -4,-203.6 920.16,-203.6 920.16,4 -4,4"/>
<!-- start -->
<g id="node1" class="node">
<title>start</title>
<text text-anchor="middle" x="27" y="-105.9" font-family="Times,serif" font-size="14.00">start</text>
</g>
<!-- S0 -->
<g id="node2" class="node">
<title>S0</title>
<ellipse fill="none" stroke="black" cx="113.75" cy="-109.6" rx="23" ry="23"/>
<text text-anchor="middle" x="113.75" y="-105.9" font-family="Times,serif" font-size="14.00">S0</text>
</g>
<!-- start&#45;&gt;S0 -->
<g id="edge1" class="edge">
<title>start&#45;&gt;S0</title>
<path fill="none" stroke="black" d="M54.35,-109.6C62.71,-109.6 72.05,-109.6 80.76,-109.6"/>
<polygon fill="black" stroke="black" points="80.97,-113.1 90.97,-109.6 80.97,-106.1 80.97,-113.1"/>
</g>
<!-- S5 -->
<g id="node3" class="node">
<title>S5</title>
<ellipse fill="none" stroke="black" cx="203.24" cy="-109.6" rx="23" ry="23"/>
<text text-anchor="middle" x="203.24" y="-105.9" font-family="Times,serif" font-size="14.00">S5</text>
</g>
<!-- S0&#45;&gt;S5 -->
<g id="edge2" class="edge">
<title>S0&#45;&gt;S5</title>
<path fill="none" stroke="black" d="M136.83,-109.6C146.96,-109.6 159.16,-109.6 170.26,-109.6"/>
<polygon fill="black" stroke="black" points="170.48,-113.1 180.48,-109.6 170.48,-106.1 170.48,-113.1"/>
<text text-anchor="middle" x="158.5" y="-113.4" font-family="Times,serif" font-size="14.00">ε</text>
</g>
<!-- S1 -->
<g id="node4" class="node">
<title>S1</title>
<ellipse fill="none" stroke="black" cx="297.74" cy="-135.6" rx="23" ry="23"/>
<text text-anchor="middle" x="297.74" y="-131.9" font-family="Times,serif" font-size="14.00">S1</text>
</g>
<!-- S5&#45;&gt;S1 -->
<g id="edge7" class="edge">
<title>S5&#45;&gt;S1</title>
<path fill="none" stroke="black" d="M225.23,-115.5C237.21,-118.86 252.45,-123.15 265.78,-126.89"/>
<polygon fill="black" stroke="black" points="264.94,-130.29 275.51,-129.63 266.83,-123.56 264.94,-130.29"/>
<text text-anchor="middle" x="250.49" y="-127.4" font-family="Times,serif" font-size="14.00">ε</text>
</g>
<!-- S3 -->
<g id="node7" class="node">
<title>S3</title>
<ellipse fill="none" stroke="black" cx="297.74" cy="-72.6" rx="23" ry="23"/>
<text text-anchor="middle" x="297.74" y="-68.9" font-family="Times,serif" font-size="14.00">S3</text>
</g>
<!-- S5&#45;&gt;S3 -->
<g id="edge8" class="edge">
<title>S5&#45;&gt;S3</title>
<path fill="none" stroke="black" d="M224.77,-101.39C237.11,-96.45 253.02,-90.09 266.74,-84.6"/>
<polygon fill="black" stroke="black" points="268.28,-87.75 276.27,-80.79 265.68,-81.25 268.28,-87.75"/>
<text text-anchor="middle" x="250.49" y="-96.4" font-family="Times,serif" font-size="14.00">ε </text>
</g>
<!-- S7 -->
<g id="node9" class="node">
<title>S7</title>
<ellipse fill="none" stroke="black" cx="598.23" cy="-32.6" rx="23" ry="23"/>
<text text-anchor="middle" x="598.23" y="-28.9" font-family="Times,serif" font-size="14.00">S7</text>
</g>
<!-- S5&#45;&gt;S7 -->
<g id="edge9" class="edge">
<title>S5&#45;&gt;S7</title>
<path fill="none" stroke="black" d="M213.48,-88.96C227.32,-61.56 256.21,-16.6 296.74,-16.6 296.74,-16.6 296.74,-16.6 491.73,-16.6 516.93,-16.6 545.13,-21.11 566.03,-25.35"/>
<polygon fill="black" stroke="black" points="565.45,-28.8 575.95,-27.45 566.89,-21.95 565.45,-28.8"/>
<text text-anchor="middle" x="401.24" y="-20.4" font-family="Times,serif" font-size="14.00">ε &#160;&#160;&#160;&#160;</text>
</g>
<!-- S2 -->
<g id="node5" class="node">
<title>S2</title>
<ellipse fill="none" stroke="black" cx="401.24" cy="-135.6" rx="23" ry="23"/>
<text text-anchor="middle" x="401.24" y="-131.9" font-family="Times,serif" font-size="14.00">S2</text>
</g>
<!-- S1&#45;&gt;S2 -->
<g id="edge3" class="edge">
<title>S1&#45;&gt;S2</title>
<path fill="none" stroke="black" d="M320.51,-135.6C334.33,-135.6 352.46,-135.6 367.94,-135.6"/>
<polygon fill="black" stroke="black" points="368.15,-139.1 378.15,-135.6 368.15,-132.1 368.15,-139.1"/>
<text text-anchor="middle" x="349.49" y="-139.4" font-family="Times,serif" font-size="14.00">A</text>
</g>
<!-- S6 -->
<g id="node6" class="node">
<title>S6</title>
<ellipse fill="none" stroke="black" cx="490.73" cy="-109.6" rx="23" ry="23"/>
<text text-anchor="middle" x="490.73" y="-105.9" font-family="Times,serif" font-size="14.00">S6</text>
</g>
<!-- S2&#45;&gt;S6 -->
<g id="edge4" class="edge">
<title>S2&#45;&gt;S6</title>
<path fill="none" stroke="black" d="M423.42,-129.3C434.06,-126.14 447.15,-122.25 458.88,-118.76"/>
<polygon fill="black" stroke="black" points="460.16,-122.04 468.75,-115.83 458.16,-115.33 460.16,-122.04"/>
<text text-anchor="middle" x="445.98" y="-126.4" font-family="Times,serif" font-size="14.00">ε</text>
</g>
<!-- S6&#45;&gt;S5 -->
<g id="edge10" class="edge">
<title>S6&#45;&gt;S5</title>
<path fill="none" stroke="black" d="M475.99,-127.32C463.99,-141.25 445.2,-159.58 423.98,-167.6 362.04,-191.01 337.43,-189.64 274.99,-167.6 255.96,-160.88 238.39,-146.54 225.52,-133.8"/>
<polygon fill="black" stroke="black" points="227.98,-131.31 218.51,-126.56 222.95,-136.18 227.98,-131.31"/>
<text text-anchor="middle" x="349.49" y="-188.4" font-family="Times,serif" font-size="14.00">ε &#160;&#160;</text>
</g>
<!-- S6&#45;&gt;S7 -->
<g id="edge11" class="edge">
<title>S6&#45;&gt;S7</title>
<path fill="none" stroke="black" d="M509.63,-96.54C526.45,-84.26 551.83,-65.73 570.95,-51.77"/>
<polygon fill="black" stroke="black" points="573.23,-54.45 579.24,-45.72 569.1,-48.79 573.23,-54.45"/>
<text text-anchor="middle" x="544.48" y="-83.4" font-family="Times,serif" font-size="14.00">ε &#160;&#160;&#160;</text>
</g>
<!-- S4 -->
<g id="node8" class="node">
<title>S4</title>
<ellipse fill="none" stroke="black" cx="401.24" cy="-72.6" rx="23" ry="23"/>
<text text-anchor="middle" x="401.24" y="-68.9" font-family="Times,serif" font-size="14.00">S4</text>
</g>
<!-- S3&#45;&gt;S4 -->
<g id="edge5" class="edge">
<title>S3&#45;&gt;S4</title>
<path fill="none" stroke="black" d="M320.51,-72.6C334.33,-72.6 352.46,-72.6 367.94,-72.6"/>
<polygon fill="black" stroke="black" points="368.15,-76.1 378.15,-72.6 368.15,-69.1 368.15,-76.1"/>
<text text-anchor="middle" x="349.49" y="-76.4" font-family="Times,serif" font-size="14.00">B</text>
</g>
<!-- S4&#45;&gt;S6 -->
<g id="edge6" class="edge">
<title>S4&#45;&gt;S6</title>
<path fill="none" stroke="black" d="M422.53,-81.18C433.68,-85.9 447.72,-91.83 460.08,-97.06"/>
<polygon fill="black" stroke="black" points="458.98,-100.39 469.55,-101.06 461.7,-93.94 458.98,-100.39"/>
<text text-anchor="middle" x="445.98" y="-95.4" font-family="Times,serif" font-size="14.00">ε</text>
</g>
<!-- S8 -->
<g id="node10" class="node">
<title>S8</title>
<ellipse fill="none" stroke="black" cx="687.72" cy="-32.6" rx="23" ry="23"/>
<text text-anchor="middle" x="687.72" y="-28.9" font-family="Times,serif" font-size="14.00">S8</text>
</g>
<!-- S7&#45;&gt;S8 -->
<g id="edge12" class="edge">
<title>S7&#45;&gt;S8</title>
<path fill="none" stroke="black" d="M621.31,-32.6C631.43,-32.6 643.64,-32.6 654.74,-32.6"/>
<polygon fill="black" stroke="black" points="654.96,-36.1 664.95,-32.6 654.95,-29.1 654.96,-36.1"/>
<text text-anchor="middle" x="642.98" y="-36.4" font-family="Times,serif" font-size="14.00">ε</text>
</g>
<!-- S9 -->
<g id="node11" class="node">
<title>S9</title>
<ellipse fill="none" stroke="black" cx="780.22" cy="-32.6" rx="23" ry="23"/>
<text text-anchor="middle" x="780.22" y="-28.9" font-family="Times,serif" font-size="14.00">S9</text>
</g>
<!-- S8&#45;&gt;S9 -->
<g id="edge13" class="edge">
<title>S8&#45;&gt;S9</title>
<path fill="none" stroke="black" d="M710.63,-32.6C721.55,-32.6 734.98,-32.6 747.04,-32.6"/>
<polygon fill="black" stroke="black" points="747.2,-36.1 757.2,-32.6 747.2,-29.1 747.2,-36.1"/>
<text text-anchor="middle" x="733.97" y="-36.4" font-family="Times,serif" font-size="14.00">C</text>
</g>
<!-- S10 -->
<g id="node12" class="node">
<title>S10</title>
<ellipse fill="none" stroke="black" cx="883.57" cy="-32.6" rx="28.68" ry="28.68"/>
<ellipse fill="none" stroke="black" cx="883.57" cy="-32.6" rx="32.7" ry="32.7"/>
<text text-anchor="middle" x="883.57" y="-28.9" font-family="Times,serif" font-size="14.00">S10</text>
</g>
<!-- S9&#45;&gt;S10 -->
<g id="edge14" class="edge">
<title>S9&#45;&gt;S10</title>
<path fill="none" stroke="black" d="M803.21,-32.6C814.14,-32.6 827.73,-32.6 840.56,-32.6"/>
<polygon fill="black" stroke="black" points="840.61,-36.1 850.61,-32.6 840.61,-29.1 840.61,-36.1"/>
<text text-anchor="middle" x="826.97" y="-36.4" font-family="Times,serif" font-size="14.00">D</text>
</g>
</g>
</svg>
