<?xml version="1.0" encoding="UTF-8" standalone="no"?>
<!DOCTYPE svg PUBLIC "-//W3C//DTD SVG 1.1//EN"
 "http://www.w3.org/Graphics/SVG/1.1/DTD/svg11.dtd">
<!-- Generated by graphviz version 2.43.0 (0)
 -->
<!-- Title: %3 Pages: 1 -->
<svg width="343pt" height="94pt"
 viewBox="0.00 0.00 343.49 94.50" xmlns="http://www.w3.org/2000/svg" xmlns:xlink="http://www.w3.org/1999/xlink">
<g id="graph0" class="graph" transform="scale(1 1) rotate(0) translate(4 90.5)">
<title>%3</title>
<polygon fill="white" stroke="transparent" points="-4,4 -4,-90.5 339.49,-90.5 339.49,4 -4,4"/>
<!-- start -->
<g id="node1" class="node">
<title>start</title>
<text text-anchor="middle" x="27" y="-23.05" font-family="Times,serif" font-size="14.00">start</text>
</g>
<!-- S0 -->
<g id="node2" class="node">
<title>S0</title>
<ellipse fill="none" stroke="black" cx="117.75" cy="-26.75" rx="22.96" ry="22.96"/>
<ellipse fill="none" stroke="black" cx="117.75" cy="-26.75" rx="27" ry="27"/>
<text text-anchor="middle" x="117.75" y="-23.05" font-family="Times,serif" font-size="14.00">S0</text>
</g>
<!-- start&#45;&gt;S0 -->
<g id="edge1" class="edge">
<title>start&#45;&gt;S0</title>
<path fill="none" stroke="black" d="M54.15,-26.75C62.45,-26.75 71.79,-26.75 80.67,-26.75"/>
<polygon fill="black" stroke="black" points="80.79,-30.25 90.79,-26.75 80.79,-23.25 80.79,-30.25"/>
</g>
<!-- S0&#45;&gt;S0 -->
<g id="edge2" class="edge">
<title>S0&#45;&gt;S0</title>
<path fill="none" stroke="black" d="M109.55,-52.5C109.09,-62.83 111.82,-71.5 117.75,-71.5 121.55,-71.5 124.03,-67.94 125.21,-62.67"/>
<polygon fill="black" stroke="black" points="128.71,-62.73 125.95,-52.5 121.73,-62.22 128.71,-62.73"/>
<text text-anchor="middle" x="117.75" y="-75.3" font-family="Times,serif" font-size="14.00">0</text>
</g>
<!-- S1 -->
<g id="node3" class="node">
<title>S1</title>
<ellipse fill="none" stroke="black" cx="213.24" cy="-26.75" rx="23" ry="23"/>
<text text-anchor="middle" x="213.24" y="-23.05" font-family="Times,serif" font-size="14.00">S1</text>
</g>
<!-- S0&#45;&gt;S1 -->
<g id="edge3" class="edge">
<title>S0&#45;&gt;S1</title>
<path fill="none" stroke="black" d="M144.79,-26.75C155.8,-26.75 168.72,-26.75 180.29,-26.75"/>
<polygon fill="black" stroke="black" points="180.45,-30.25 190.45,-26.75 180.45,-23.25 180.45,-30.25"/>
<text text-anchor="middle" x="167.5" y="-30.55" font-family="Times,serif" font-size="14.00">1</text>
</g>
<!-- S1&#45;&gt;S0 -->
<g id="edge5" class="edge">
<title>S1&#45;&gt;S0</title>
<path fill="none" stroke="black" d="M193.06,-15.46C186.73,-12.32 179.51,-9.34 172.5,-7.75 165.2,-6.09 157.52,-7.07 150.32,-9.28"/>
<polygon fill="black" stroke="black" points="148.97,-6.05 140.89,-12.91 151.48,-12.58 148.97,-6.05"/>
<text text-anchor="middle" x="167.5" y="-11.55" font-family="Times,serif" font-size="14.00">1</text>
</g>
<!-- S2 -->
<g id="node4" class="node">
<title>S2</title>
<ellipse fill="none" stroke="black" cx="308.74" cy="-26.75" rx="22.96" ry="22.96"/>
<ellipse fill="none" stroke="black" cx="308.74" cy="-26.75" rx="27" ry="27"/>
<text text-anchor="middle" x="308.74" y="-23.05" font-family="Times,serif" font-size="14.00">S2</text>
</g>
<!-- S1&#45;&gt;S2 -->
<g id="edge4" class="edge">
<title>S1&#45;&gt;S2</title>
<path fill="none" stroke="black" d="M236.4,-26.75C246.93,-26.75 259.78,-26.75 271.66,-26.75"/>
<polygon fill="black" stroke="black" points="271.76,-30.25 281.76,-26.75 271.76,-23.25 271.76,-30.25"/>
<text text-anchor="middle" x="258.99" y="-30.55" font-family="Times,serif" font-size="14.00">0</text>
</g>
<!-- S2&#45;&gt;S1 -->
<g id="edge6" class="edge">
<title>S2&#45;&gt;S1</title>
<path fill="none" stroke="black" d="M285.59,-12.91C276.03,-8.51 264.61,-5.34 253.99,-7.75 250.27,-8.59 246.48,-9.83 242.8,-11.28"/>
<polygon fill="black" stroke="black" points="241.13,-8.19 233.43,-15.46 243.98,-14.58 241.13,-8.19"/>
<text text-anchor="middle" x="258.99" y="-11.55" font-family="Times,serif" font-size="14.00">0</text>
</g>
<!-- S2&#45;&gt;S2 -->
<g id="edge7" class="edge">
<title>S2&#45;&gt;S2</title>
<path fill="none" stroke="black" d="M299.82,-52.05C299.2,-62.57 302.18,-71.5 308.74,-71.5 313.05,-71.5 315.81,-67.65 317.02,-62.04"/>
<polygon fill="black" stroke="black" points="320.52,-62.25 317.66,-52.05 313.53,-61.81 320.52,-62.25"/>
<text text-anchor="middle" x="308.74" y="-75.3" font-family="Times,serif" font-size="14.00">1</text>
</g>
</g>
</svg>
