<?xml version="1.0" encoding="UTF-8" standalone="no"?>
<!DOCTYPE svg PUBLIC "-//W3C//DTD SVG 1.1//EN"
 "http://www.w3.org/Graphics/SVG/1.1/DTD/svg11.dtd">
<!-- Generated by graphviz version 2.40.1 (20161225.0304)
 -->
<!-- Title: %3 Pages: 1 -->
<svg width="1044pt" height="316pt"
 viewBox="0.00 0.00 1044.15 315.70" xmlns="http://www.w3.org/2000/svg" xmlns:xlink="http://www.w3.org/1999/xlink">
<g id="graph0" class="graph" transform="scale(1 1) rotate(0) translate(4 311.6978)">
<title>%3</title>
<polygon fill="#ffffff" stroke="transparent" points="-4,4 -4,-311.6978 1040.1534,-311.6978 1040.1534,4 -4,4"/>
<!-- start -->
<g id="node1" class="node">
<title>start</title>
<text text-anchor="middle" x="27" y="-158.9978" font-family="Times,serif" font-size="14.00" fill="#000000">start</text>
</g>
<!-- S0 -->
<g id="node2" class="node">
<title>S0</title>
<ellipse fill="none" stroke="#000000" cx="111.1482" cy="-162.6978" rx="20.2975" ry="20.2975"/>
<text text-anchor="middle" x="111.1482" y="-158.9978" font-family="Times,serif" font-size="14.00" fill="#000000">S0</text>
</g>
<!-- start&#45;&gt;S0 -->
<g id="edge1" class="edge">
<title>start&#45;&gt;S0</title>
<path fill="none" stroke="#000000" d="M54.0882,-162.6978C62.5592,-162.6978 71.9625,-162.6978 80.6514,-162.6978"/>
<polygon fill="#000000" stroke="#000000" points="80.785,-166.1979 90.785,-162.6978 80.785,-159.1979 80.785,-166.1979"/>
</g>
<!-- S16 -->
<g id="node3" class="node">
<title>S16</title>
<ellipse fill="none" stroke="#000000" cx="198.9942" cy="-162.6978" rx="24.8972" ry="24.8972"/>
<text text-anchor="middle" x="198.9942" y="-158.9978" font-family="Times,serif" font-size="14.00" fill="#000000">S16</text>
</g>
<!-- S0&#45;&gt;S16 -->
<g id="edge2" class="edge">
<title>S0&#45;&gt;S16</title>
<path fill="none" stroke="#000000" d="M131.5227,-162.6978C141.125,-162.6978 152.8593,-162.6978 163.833,-162.6978"/>
<polygon fill="#000000" stroke="#000000" points="164.0268,-166.1979 174.0267,-162.6978 164.0267,-159.1979 164.0268,-166.1979"/>
<text text-anchor="middle" x="152.7964" y="-166.4978" font-family="Times,serif" font-size="14.00" fill="#000000">ε</text>
</g>
<!-- S1 -->
<g id="node4" class="node">
<title>S1</title>
<ellipse fill="none" stroke="#000000" cx="289.8403" cy="-186.6978" rx="20.2975" ry="20.2975"/>
<text text-anchor="middle" x="289.8403" y="-182.9978" font-family="Times,serif" font-size="14.00" fill="#000000">S1</text>
</g>
<!-- S16&#45;&gt;S1 -->
<g id="edge20" class="edge">
<title>S16&#45;&gt;S1</title>
<path fill="none" stroke="#000000" d="M223.3393,-169.1294C234.7214,-172.1363 248.3723,-175.7427 260.3364,-178.9034"/>
<polygon fill="#000000" stroke="#000000" points="259.7543,-182.3696 270.3166,-181.54 261.5423,-175.6018 259.7543,-182.3696"/>
<text text-anchor="middle" x="246.692" y="-180.4978" font-family="Times,serif" font-size="14.00" fill="#000000">ε</text>
</g>
<!-- S8 -->
<g id="node12" class="node">
<title>S8</title>
<ellipse fill="none" stroke="#000000" cx="289.8403" cy="-127.6978" rx="20.2975" ry="20.2975"/>
<text text-anchor="middle" x="289.8403" y="-123.9978" font-family="Times,serif" font-size="14.00" fill="#000000">S8</text>
</g>
<!-- S16&#45;&gt;S8 -->
<g id="edge21" class="edge">
<title>S16&#45;&gt;S8</title>
<path fill="none" stroke="#000000" d="M222.3893,-153.6844C234.2534,-149.1136 248.7629,-143.5236 261.2809,-138.7008"/>
<polygon fill="#000000" stroke="#000000" points="262.7315,-141.8928 270.8046,-135.0316 260.2149,-135.3608 262.7315,-141.8928"/>
<text text-anchor="middle" x="246.692" y="-150.4978" font-family="Times,serif" font-size="14.00" fill="#000000">ε </text>
</g>
<!-- S18 -->
<g id="node20" class="node">
<title>S18</title>
<ellipse fill="none" stroke="#000000" cx="1007.4556" cy="-28.6978" rx="24.8692" ry="24.8692"/>
<ellipse fill="none" stroke="#000000" cx="1007.4556" cy="-28.6978" rx="28.897" ry="28.897"/>
<text text-anchor="middle" x="1007.4556" y="-24.9978" font-family="Times,serif" font-size="14.00" fill="#000000">S18</text>
</g>
<!-- S16&#45;&gt;S18 -->
<g id="edge22" class="edge">
<title>S16&#45;&gt;S18</title>
<path fill="none" stroke="#000000" d="M202.461,-137.9284C209.9715,-95.3242 231.9941,-12.6978 289.8403,-12.6978 289.8403,-12.6978 289.8403,-12.6978 896.06,-12.6978 920.574,-12.6978 947.8172,-16.5412 969.2257,-20.4605"/>
<polygon fill="#000000" stroke="#000000" points="968.7496,-23.9328 979.2292,-22.3742 970.0649,-17.0575 968.7496,-23.9328"/>
<text text-anchor="middle" x="576.4775" y="-16.4978" font-family="Times,serif" font-size="14.00" fill="#000000">ε &#160;&#160;&#160;&#160;</text>
</g>
<!-- S6 -->
<g id="node5" class="node">
<title>S6</title>
<ellipse fill="none" stroke="#000000" cx="377.6863" cy="-189.6978" rx="20.2975" ry="20.2975"/>
<text text-anchor="middle" x="377.6863" y="-185.9978" font-family="Times,serif" font-size="14.00" fill="#000000">S6</text>
</g>
<!-- S1&#45;&gt;S6 -->
<g id="edge3" class="edge">
<title>S1&#45;&gt;S6</title>
<path fill="none" stroke="#000000" d="M310.2147,-187.3936C321.1911,-187.7685 334.9532,-188.2384 347.1806,-188.656"/>
<polygon fill="#000000" stroke="#000000" points="347.3087,-192.1623 357.4223,-189.0058 347.5476,-185.1664 347.3087,-192.1623"/>
<text text-anchor="middle" x="331.4885" y="-192.4978" font-family="Times,serif" font-size="14.00" fill="#000000">ε</text>
</g>
<!-- S2 -->
<g id="node6" class="node">
<title>S2</title>
<ellipse fill="none" stroke="#000000" cx="473.0819" cy="-186.6978" rx="20.2975" ry="20.2975"/>
<text text-anchor="middle" x="473.0819" y="-182.9978" font-family="Times,serif" font-size="14.00" fill="#000000">S2</text>
</g>
<!-- S6&#45;&gt;S2 -->
<g id="edge8" class="edge">
<title>S6&#45;&gt;S2</title>
<path fill="none" stroke="#000000" d="M397.9172,-189.0616C410.9443,-188.6519 428.1179,-188.1118 442.7606,-187.6514"/>
<polygon fill="#000000" stroke="#000000" points="442.9951,-191.1458 452.8801,-187.3331 442.775,-184.1493 442.9951,-191.1458"/>
<text text-anchor="middle" x="425.3841" y="-192.4978" font-family="Times,serif" font-size="14.00" fill="#000000">ε</text>
</g>
<!-- S4 -->
<g id="node9" class="node">
<title>S4</title>
<ellipse fill="none" stroke="#000000" cx="473.0819" cy="-244.6978" rx="20.2975" ry="20.2975"/>
<text text-anchor="middle" x="473.0819" y="-240.9978" font-family="Times,serif" font-size="14.00" fill="#000000">S4</text>
</g>
<!-- S6&#45;&gt;S4 -->
<g id="edge9" class="edge">
<title>S6&#45;&gt;S4</title>
<path fill="none" stroke="#000000" d="M395.1833,-199.7857C409.4819,-208.0295 429.9316,-219.8197 446.2908,-229.2515"/>
<polygon fill="#000000" stroke="#000000" points="444.9613,-232.525 455.3727,-234.4877 448.4576,-226.4607 444.9613,-232.525"/>
<text text-anchor="middle" x="425.3841" y="-223.4978" font-family="Times,serif" font-size="14.00" fill="#000000">ε </text>
</g>
<!-- S3 -->
<g id="node7" class="node">
<title>S3</title>
<ellipse fill="none" stroke="#000000" cx="576.4775" cy="-186.6978" rx="20.2975" ry="20.2975"/>
<text text-anchor="middle" x="576.4775" y="-182.9978" font-family="Times,serif" font-size="14.00" fill="#000000">S3</text>
</g>
<!-- S2&#45;&gt;S3 -->
<g id="edge4" class="edge">
<title>S2&#45;&gt;S3</title>
<path fill="none" stroke="#000000" d="M493.5095,-186.6978C508.3791,-186.6978 528.777,-186.6978 545.6262,-186.6978"/>
<polygon fill="#000000" stroke="#000000" points="546.0923,-190.1979 556.0923,-186.6978 546.0923,-183.1979 546.0923,-190.1979"/>
<text text-anchor="middle" x="524.7797" y="-190.4978" font-family="Times,serif" font-size="14.00" fill="#000000">A</text>
</g>
<!-- S7 -->
<g id="node8" class="node">
<title>S7</title>
<ellipse fill="none" stroke="#000000" cx="711.2687" cy="-186.6978" rx="20.2975" ry="20.2975"/>
<text text-anchor="middle" x="711.2687" y="-182.9978" font-family="Times,serif" font-size="14.00" fill="#000000">S7</text>
</g>
<!-- S3&#45;&gt;S7 -->
<g id="edge5" class="edge">
<title>S3&#45;&gt;S7</title>
<path fill="none" stroke="#000000" d="M596.6571,-186.6978C618.8916,-186.6978 654.9047,-186.6978 680.6274,-186.6978"/>
<polygon fill="#000000" stroke="#000000" points="680.9512,-190.1979 690.9512,-186.6978 680.9511,-183.1979 680.9512,-190.1979"/>
<text text-anchor="middle" x="643.8731" y="-190.4978" font-family="Times,serif" font-size="14.00" fill="#000000">ε</text>
</g>
<!-- S17 -->
<g id="node11" class="node">
<title>S17</title>
<ellipse fill="none" stroke="#000000" cx="896.06" cy="-169.6978" rx="24.8972" ry="24.8972"/>
<text text-anchor="middle" x="896.06" y="-165.9978" font-family="Times,serif" font-size="14.00" fill="#000000">S17</text>
</g>
<!-- S7&#45;&gt;S17 -->
<g id="edge10" class="edge">
<title>S7&#45;&gt;S17</title>
<path fill="none" stroke="#000000" d="M731.3964,-184.8461C762.5198,-181.9829 822.7291,-176.4439 861.0786,-172.9159"/>
<polygon fill="#000000" stroke="#000000" points="861.6358,-176.3796 871.2731,-171.9781 860.9945,-169.409 861.6358,-176.3796"/>
<text text-anchor="middle" x="803.6644" y="-184.4978" font-family="Times,serif" font-size="14.00" fill="#000000">ε</text>
</g>
<!-- S5 -->
<g id="node10" class="node">
<title>S5</title>
<ellipse fill="none" stroke="#000000" cx="576.4775" cy="-244.6978" rx="20.2975" ry="20.2975"/>
<text text-anchor="middle" x="576.4775" y="-240.9978" font-family="Times,serif" font-size="14.00" fill="#000000">S5</text>
</g>
<!-- S4&#45;&gt;S5 -->
<g id="edge6" class="edge">
<title>S4&#45;&gt;S5</title>
<path fill="none" stroke="#000000" d="M493.5095,-244.6978C508.3791,-244.6978 528.777,-244.6978 545.6262,-244.6978"/>
<polygon fill="#000000" stroke="#000000" points="546.0923,-248.1979 556.0923,-244.6978 546.0923,-241.1979 546.0923,-248.1979"/>
<text text-anchor="middle" x="524.7797" y="-248.4978" font-family="Times,serif" font-size="14.00" fill="#000000">B</text>
</g>
<!-- S5&#45;&gt;S7 -->
<g id="edge7" class="edge">
<title>S5&#45;&gt;S7</title>
<path fill="none" stroke="#000000" d="M595.2164,-236.879C613.855,-229.0746 643.2477,-216.693 668.5709,-205.6978 673.3782,-203.6105 678.4779,-201.3669 683.4164,-199.1788"/>
<polygon fill="#000000" stroke="#000000" points="684.8816,-202.3578 692.5953,-195.095 682.036,-195.9622 684.8816,-202.3578"/>
<text text-anchor="middle" x="643.8731" y="-230.4978" font-family="Times,serif" font-size="14.00" fill="#000000">ε</text>
</g>
<!-- S17&#45;&gt;S16 -->
<g id="edge23" class="edge">
<title>S17&#45;&gt;S16</title>
<path fill="none" stroke="#000000" d="M889.818,-193.7054C878.896,-229.5007 852.6733,-292.6978 803.6644,-292.6978 289.8403,-292.6978 289.8403,-292.6978 289.8403,-292.6978 242.9541,-292.6978 218.2476,-235.1794 206.9591,-196.6614"/>
<polygon fill="#000000" stroke="#000000" points="210.2839,-195.5525 204.248,-186.8451 203.5365,-197.4161 210.2839,-195.5525"/>
<text text-anchor="middle" x="524.7797" y="-296.4978" font-family="Times,serif" font-size="14.00" fill="#000000">ε &#160;&#160;</text>
</g>
<!-- S17&#45;&gt;S18 -->
<g id="edge24" class="edge">
<title>S17&#45;&gt;S18</title>
<path fill="none" stroke="#000000" d="M911.5491,-150.0924C930.0778,-126.6395 961.3183,-87.0964 983.0908,-59.5377"/>
<polygon fill="#000000" stroke="#000000" points="986.0664,-61.4172 989.5193,-51.4008 980.5737,-57.0778 986.0664,-61.4172"/>
<text text-anchor="middle" x="949.7578" y="-116.4978" font-family="Times,serif" font-size="14.00" fill="#000000">ε &#160;&#160;&#160;</text>
</g>
<!-- S14 -->
<g id="node13" class="node">
<title>S14</title>
<ellipse fill="none" stroke="#000000" cx="377.6863" cy="-126.6978" rx="24.8972" ry="24.8972"/>
<text text-anchor="middle" x="377.6863" y="-122.9978" font-family="Times,serif" font-size="14.00" fill="#000000">S14</text>
</g>
<!-- S8&#45;&gt;S14 -->
<g id="edge11" class="edge">
<title>S8&#45;&gt;S14</title>
<path fill="none" stroke="#000000" d="M310.2147,-127.4659C319.8171,-127.3566 331.5514,-127.223 342.5251,-127.0981"/>
<polygon fill="#000000" stroke="#000000" points="342.7593,-130.5957 352.7188,-126.982 342.6795,-123.5962 342.7593,-130.5957"/>
<text text-anchor="middle" x="331.4885" y="-131.4978" font-family="Times,serif" font-size="14.00" fill="#000000">ε</text>
</g>
<!-- S9 -->
<g id="node14" class="node">
<title>S9</title>
<ellipse fill="none" stroke="#000000" cx="473.0819" cy="-128.6978" rx="20.2975" ry="20.2975"/>
<text text-anchor="middle" x="473.0819" y="-124.9978" font-family="Times,serif" font-size="14.00" fill="#000000">S9</text>
</g>
<!-- S14&#45;&gt;S9 -->
<g id="edge17" class="edge">
<title>S14&#45;&gt;S9</title>
<path fill="none" stroke="#000000" d="M402.7503,-127.2233C414.9123,-127.4783 429.6301,-127.7868 442.4523,-128.0556"/>
<polygon fill="#000000" stroke="#000000" points="442.6081,-131.5596 452.6793,-128.2701 442.7549,-124.5611 442.6081,-131.5596"/>
<text text-anchor="middle" x="425.3841" y="-132.4978" font-family="Times,serif" font-size="14.00" fill="#000000">ε</text>
</g>
<!-- S12 -->
<g id="node18" class="node">
<title>S12</title>
<ellipse fill="none" stroke="#000000" cx="473.0819" cy="-65.6978" rx="24.8972" ry="24.8972"/>
<text text-anchor="middle" x="473.0819" y="-61.9978" font-family="Times,serif" font-size="14.00" fill="#000000">S12</text>
</g>
<!-- S14&#45;&gt;S12 -->
<g id="edge18" class="edge">
<title>S14&#45;&gt;S12</title>
<path fill="none" stroke="#000000" d="M398.8577,-113.1599C411.9492,-104.7886 428.95,-93.9176 443.3772,-84.6922"/>
<polygon fill="#000000" stroke="#000000" points="445.4304,-87.5338 451.9697,-79.1978 441.6593,-81.6364 445.4304,-87.5338"/>
<text text-anchor="middle" x="425.3841" y="-102.4978" font-family="Times,serif" font-size="14.00" fill="#000000">ε </text>
</g>
<!-- S10 -->
<g id="node15" class="node">
<title>S10</title>
<ellipse fill="none" stroke="#000000" cx="576.4775" cy="-123.6978" rx="24.8972" ry="24.8972"/>
<text text-anchor="middle" x="576.4775" y="-119.9978" font-family="Times,serif" font-size="14.00" fill="#000000">S10</text>
</g>
<!-- S9&#45;&gt;S10 -->
<g id="edge12" class="edge">
<title>S9&#45;&gt;S10</title>
<path fill="none" stroke="#000000" d="M493.5095,-127.71C507.2204,-127.0469 525.6317,-126.1566 541.6271,-125.3831"/>
<polygon fill="#000000" stroke="#000000" points="541.8966,-128.8743 551.7158,-124.8952 541.5584,-121.8824 541.8966,-128.8743"/>
<text text-anchor="middle" x="524.7797" y="-130.4978" font-family="Times,serif" font-size="14.00" fill="#000000">C</text>
</g>
<!-- S11 -->
<g id="node16" class="node">
<title>S11</title>
<ellipse fill="none" stroke="#000000" cx="711.2687" cy="-123.6978" rx="24.8972" ry="24.8972"/>
<text text-anchor="middle" x="711.2687" y="-119.9978" font-family="Times,serif" font-size="14.00" fill="#000000">S11</text>
</g>
<!-- S10&#45;&gt;S11 -->
<g id="edge13" class="edge">
<title>S10&#45;&gt;S11</title>
<path fill="none" stroke="#000000" d="M601.2003,-123.6978C622.1591,-123.6978 652.4712,-123.6978 675.9811,-123.6978"/>
<polygon fill="#000000" stroke="#000000" points="676.2462,-127.1979 686.2462,-123.6978 676.2462,-120.1979 676.2462,-127.1979"/>
<text text-anchor="middle" x="643.8731" y="-127.4978" font-family="Times,serif" font-size="14.00" fill="#000000">D</text>
</g>
<!-- S15 -->
<g id="node17" class="node">
<title>S15</title>
<ellipse fill="none" stroke="#000000" cx="803.6644" cy="-123.6978" rx="24.8972" ry="24.8972"/>
<text text-anchor="middle" x="803.6644" y="-119.9978" font-family="Times,serif" font-size="14.00" fill="#000000">S15</text>
</g>
<!-- S11&#45;&gt;S15 -->
<g id="edge14" class="edge">
<title>S11&#45;&gt;S15</title>
<path fill="none" stroke="#000000" d="M736.0291,-123.6978C746.0752,-123.6978 757.8591,-123.6978 768.7515,-123.6978"/>
<polygon fill="#000000" stroke="#000000" points="768.8357,-127.1979 778.8357,-123.6978 768.8356,-120.1979 768.8357,-127.1979"/>
<text text-anchor="middle" x="757.4666" y="-127.4978" font-family="Times,serif" font-size="14.00" fill="#000000">ε</text>
</g>
<!-- S15&#45;&gt;S17 -->
<g id="edge19" class="edge">
<title>S15&#45;&gt;S17</title>
<path fill="none" stroke="#000000" d="M826.0308,-134.8331C837.6069,-140.5964 851.9321,-147.7284 864.6043,-154.0373"/>
<polygon fill="#000000" stroke="#000000" points="863.3877,-157.3414 873.8995,-158.665 866.5075,-151.075 863.3877,-157.3414"/>
<text text-anchor="middle" x="849.8622" y="-152.4978" font-family="Times,serif" font-size="14.00" fill="#000000">ε</text>
</g>
<!-- S13 -->
<g id="node19" class="node">
<title>S13</title>
<ellipse fill="none" stroke="#000000" cx="643.8731" cy="-65.6978" rx="24.8972" ry="24.8972"/>
<text text-anchor="middle" x="643.8731" y="-61.9978" font-family="Times,serif" font-size="14.00" fill="#000000">S13</text>
</g>
<!-- S12&#45;&gt;S13 -->
<g id="edge15" class="edge">
<title>S12&#45;&gt;S13</title>
<path fill="none" stroke="#000000" d="M497.9164,-65.6978C527.1351,-65.6978 575.8421,-65.6978 608.8779,-65.6978"/>
<polygon fill="#000000" stroke="#000000" points="609.0087,-69.1979 619.0086,-65.6978 609.0086,-62.1979 609.0087,-69.1979"/>
<text text-anchor="middle" x="524.7797" y="-69.4978" font-family="Times,serif" font-size="14.00" fill="#000000">@</text>
</g>
<!-- S13&#45;&gt;S15 -->
<g id="edge16" class="edge">
<title>S13&#45;&gt;S15</title>
<path fill="none" stroke="#000000" d="M668.9084,-64.6546C687.8978,-64.6823 714.3325,-66.506 735.9666,-74.6978 751.1803,-80.4586 766.0539,-90.5729 777.9668,-100.1221"/>
<polygon fill="#000000" stroke="#000000" points="775.7884,-102.8628 785.709,-106.5823 780.2732,-97.4881 775.7884,-102.8628"/>
<text text-anchor="middle" x="711.2687" y="-78.4978" font-family="Times,serif" font-size="14.00" fill="#000000">ε</text>
</g>
</g>
</svg>
