<?xml version="1.0" encoding="UTF-8" standalone="no"?>
<!DOCTYPE svg PUBLIC "-//W3C//DTD SVG 1.1//EN"
 "http://www.w3.org/Graphics/SVG/1.1/DTD/svg11.dtd">
<!-- Generated by graphviz version 2.43.0 (0)
 -->
<!-- Title: %3 Pages: 1 -->
<svg width="916pt" height="212pt"
 viewBox="0.00 0.00 915.87 212.36" xmlns="http://www.w3.org/2000/svg" xmlns:xlink="http://www.w3.org/1999/xlink">
<g id="graph0" class="graph" transform="scale(1 1) rotate(0) translate(4 208.36)">
<title>%3</title>
<polygon fill="white" stroke="transparent" points="-4,4 -4,-208.36 911.87,-208.36 911.87,4 -4,4"/>
<!-- start -->
<g id="node1" class="node">
<title>start</title>
<text text-anchor="middle" x="27" y="-99.91" font-family="Times,serif" font-size="14.00">start</text>
</g>
<!-- S10 -->
<g id="node13" class="node">
<title>S10</title>
<ellipse fill="none" stroke="black" cx="119.6" cy="-103.61" rx="28.7" ry="28.7"/>
<text text-anchor="middle" x="119.6" y="-99.91" font-family="Times,serif" font-size="14.00">S10</text>
</g>
<!-- start&#45;&gt;S10 -->
<g id="edge19" class="edge">
<title>start&#45;&gt;S10</title>
<path fill="none" stroke="black" d="M54.2,-103.61C62.47,-103.61 71.77,-103.61 80.68,-103.61"/>
<polygon fill="black" stroke="black" points="80.87,-107.11 90.87,-103.61 80.87,-100.11 80.87,-107.11"/>
</g>
<!-- S0 -->
<g id="node2" class="node">
<title>S0</title>
<ellipse fill="none" stroke="black" cx="273.94" cy="-141.61" rx="23" ry="23"/>
<text text-anchor="middle" x="273.94" y="-137.91" font-family="Times,serif" font-size="14.00">S0</text>
</g>
<!-- S1 -->
<g id="node3" class="node">
<title>S1</title>
<ellipse fill="none" stroke="black" cx="390.44" cy="-181.61" rx="23" ry="23"/>
<text text-anchor="middle" x="390.44" y="-177.91" font-family="Times,serif" font-size="14.00">S1</text>
</g>
<!-- S0&#45;&gt;S1 -->
<g id="edge1" class="edge">
<title>S0&#45;&gt;S1</title>
<path fill="none" stroke="black" d="M290.09,-157.88C296.96,-164.21 305.58,-170.83 314.69,-174.61 327.99,-180.13 343.73,-182.19 357.33,-182.75"/>
<polygon fill="black" stroke="black" points="357.63,-186.25 367.69,-182.91 357.74,-179.25 357.63,-186.25"/>
<text text-anchor="middle" x="332.19" y="-185.41" font-family="Times,serif" font-size="14.00">0</text>
</g>
<!-- S2 -->
<g id="node4" class="node">
<title>S2</title>
<ellipse fill="none" stroke="black" cx="524.93" cy="-141.61" rx="23" ry="23"/>
<text text-anchor="middle" x="524.93" y="-137.91" font-family="Times,serif" font-size="14.00">S2</text>
</g>
<!-- S0&#45;&gt;S2 -->
<g id="edge2" class="edge">
<title>S0&#45;&gt;S2</title>
<path fill="none" stroke="black" d="M296.66,-139.51C315.43,-137.8 343.32,-135.53 367.69,-134.61 410.84,-132.99 460.67,-136.08 492.23,-138.66"/>
<polygon fill="black" stroke="black" points="491.94,-142.15 502.2,-139.51 492.53,-135.17 491.94,-142.15"/>
<text text-anchor="middle" x="390.44" y="-138.41" font-family="Times,serif" font-size="14.00">ε &#160;&#160;&#160;&#160;</text>
</g>
<!-- S1&#45;&gt;S0 -->
<g id="edge3" class="edge">
<title>S1&#45;&gt;S0</title>
<path fill="none" stroke="black" d="M372.06,-168.11C365.39,-163.52 357.49,-158.75 349.69,-155.61 336.26,-150.21 320.61,-146.87 307.12,-144.81"/>
<polygon fill="black" stroke="black" points="307.22,-141.3 296.84,-143.42 306.28,-148.23 307.22,-141.3"/>
<text text-anchor="middle" x="332.19" y="-159.41" font-family="Times,serif" font-size="14.00">ε &#160;&#160;</text>
</g>
<!-- S1&#45;&gt;S2 -->
<g id="edge4" class="edge">
<title>S1&#45;&gt;S2</title>
<path fill="none" stroke="black" d="M412.43,-175.28C434.24,-168.69 468.57,-158.33 493.38,-150.84"/>
<polygon fill="black" stroke="black" points="494.48,-154.16 503.04,-147.92 492.45,-147.46 494.48,-154.16"/>
<text text-anchor="middle" x="457.69" y="-172.41" font-family="Times,serif" font-size="14.00">ε &#160;&#160;&#160;</text>
</g>
<!-- S3 -->
<g id="node5" class="node">
<title>S3</title>
<ellipse fill="none" stroke="black" cx="641.43" cy="-164.61" rx="23" ry="23"/>
<text text-anchor="middle" x="641.43" y="-160.91" font-family="Times,serif" font-size="14.00">S3</text>
</g>
<!-- S2&#45;&gt;S3 -->
<g id="edge5" class="edge">
<title>S2&#45;&gt;S3</title>
<path fill="none" stroke="black" d="M545.78,-150.91C552.03,-153.48 559.03,-156 565.68,-157.61 579.48,-160.96 595.06,-162.73 608.41,-163.65"/>
<polygon fill="black" stroke="black" points="608.39,-167.15 618.57,-164.23 608.78,-160.17 608.39,-167.15"/>
<text text-anchor="middle" x="583.18" y="-166.41" font-family="Times,serif" font-size="14.00">1</text>
</g>
<!-- S4 -->
<g id="node6" class="node">
<title>S4</title>
<ellipse fill="none" stroke="black" cx="775.93" cy="-109.61" rx="23" ry="23"/>
<text text-anchor="middle" x="775.93" y="-105.91" font-family="Times,serif" font-size="14.00">S4</text>
</g>
<!-- S2&#45;&gt;S4 -->
<g id="edge6" class="edge">
<title>S2&#45;&gt;S4</title>
<path fill="none" stroke="black" d="M546.94,-135.67C552.98,-134 559.59,-132.2 565.68,-130.61 589.15,-124.49 594.69,-121.14 618.68,-117.61 661.42,-111.34 711.35,-109.77 743.05,-109.49"/>
<polygon fill="black" stroke="black" points="743.08,-112.99 753.06,-109.43 743.04,-105.99 743.08,-112.99"/>
<text text-anchor="middle" x="641.43" y="-121.41" font-family="Times,serif" font-size="14.00">ε &#160;&#160;&#160;&#160;</text>
</g>
<!-- S3&#45;&gt;S2 -->
<g id="edge7" class="edge">
<title>S3&#45;&gt;S2</title>
<path fill="none" stroke="black" d="M623.34,-150.32C616.69,-145.63 608.74,-141.02 600.68,-138.61 586.93,-134.52 571.13,-134.51 557.61,-135.83"/>
<polygon fill="black" stroke="black" points="556.82,-132.41 547.34,-137.13 557.69,-139.35 556.82,-132.41"/>
<text text-anchor="middle" x="583.18" y="-142.41" font-family="Times,serif" font-size="14.00">ε &#160;&#160;</text>
</g>
<!-- S3&#45;&gt;S4 -->
<g id="edge8" class="edge">
<title>S3&#45;&gt;S4</title>
<path fill="none" stroke="black" d="M662.84,-156.14C684.89,-146.99 720.21,-132.33 745.31,-121.91"/>
<polygon fill="black" stroke="black" points="746.81,-125.07 754.71,-118.01 744.13,-118.61 746.81,-125.07"/>
<text text-anchor="middle" x="708.68" y="-150.41" font-family="Times,serif" font-size="14.00">ε &#160;&#160;&#160;</text>
</g>
<!-- S11 -->
<g id="node7" class="node">
<title>S11</title>
<ellipse fill="none" stroke="black" cx="875.27" cy="-77.61" rx="28.68" ry="28.68"/>
<ellipse fill="none" stroke="black" cx="875.27" cy="-77.61" rx="32.7" ry="32.7"/>
<text text-anchor="middle" x="875.27" y="-73.91" font-family="Times,serif" font-size="14.00">S11</text>
</g>
<!-- S4&#45;&gt;S11 -->
<g id="edge9" class="edge">
<title>S4&#45;&gt;S11</title>
<path fill="none" stroke="black" d="M798.05,-102.67C808.64,-99.19 821.82,-94.86 834.23,-90.78"/>
<polygon fill="black" stroke="black" points="835.55,-94.03 843.96,-87.58 833.36,-87.38 835.55,-94.03"/>
<text text-anchor="middle" x="820.67" y="-100.41" font-family="Times,serif" font-size="14.00">ε</text>
</g>
<!-- S5 -->
<g id="node8" class="node">
<title>S5</title>
<ellipse fill="none" stroke="black" cx="273.94" cy="-72.61" rx="23" ry="23"/>
<text text-anchor="middle" x="273.94" y="-68.91" font-family="Times,serif" font-size="14.00">S5</text>
</g>
<!-- S6 -->
<g id="node9" class="node">
<title>S6</title>
<ellipse fill="none" stroke="black" cx="390.44" cy="-66.61" rx="23" ry="23"/>
<text text-anchor="middle" x="390.44" y="-62.91" font-family="Times,serif" font-size="14.00">S6</text>
</g>
<!-- S5&#45;&gt;S6 -->
<g id="edge10" class="edge">
<title>S5&#45;&gt;S6</title>
<path fill="none" stroke="black" d="M296.75,-71.47C313.94,-70.57 338.16,-69.3 357.53,-68.29"/>
<polygon fill="black" stroke="black" points="357.91,-71.77 367.71,-67.75 357.55,-64.78 357.91,-71.77"/>
<text text-anchor="middle" x="332.19" y="-74.41" font-family="Times,serif" font-size="14.00">2</text>
</g>
<!-- S7 -->
<g id="node10" class="node">
<title>S7</title>
<ellipse fill="none" stroke="black" cx="524.93" cy="-26.61" rx="23" ry="23"/>
<text text-anchor="middle" x="524.93" y="-22.91" font-family="Times,serif" font-size="14.00">S7</text>
</g>
<!-- S5&#45;&gt;S7 -->
<g id="edge11" class="edge">
<title>S5&#45;&gt;S7</title>
<path fill="none" stroke="black" d="M292.07,-58.58C309.74,-45.18 338.74,-26.1 367.69,-19.61 410.06,-10.12 460.47,-15.22 492.34,-20.38"/>
<polygon fill="black" stroke="black" points="491.95,-23.87 502.39,-22.12 493.13,-16.97 491.95,-23.87"/>
<text text-anchor="middle" x="390.44" y="-23.41" font-family="Times,serif" font-size="14.00">ε &#160;&#160;&#160;&#160;&#160;&#160;&#160;</text>
</g>
<!-- S6&#45;&gt;S5 -->
<g id="edge12" class="edge">
<title>S6&#45;&gt;S5</title>
<path fill="none" stroke="black" d="M369.67,-56.93C363.43,-54.35 356.41,-51.92 349.69,-50.61 334.42,-47.66 329.75,-46.72 314.69,-50.61 310.48,-51.7 306.24,-53.34 302.18,-55.24"/>
<polygon fill="black" stroke="black" points="300.33,-52.26 293.12,-60.03 303.6,-58.45 300.33,-52.26"/>
<text text-anchor="middle" x="332.19" y="-54.41" font-family="Times,serif" font-size="14.00"> &#160;&#160;ε &#160;&#160;</text>
</g>
<!-- S6&#45;&gt;S7 -->
<g id="edge13" class="edge">
<title>S6&#45;&gt;S7</title>
<path fill="none" stroke="black" d="M412.43,-60.28C434.24,-53.69 468.57,-43.33 493.38,-35.84"/>
<polygon fill="black" stroke="black" points="494.48,-39.16 503.04,-32.92 492.45,-32.46 494.48,-39.16"/>
<text text-anchor="middle" x="457.69" y="-58.41" font-family="Times,serif" font-size="14.00"> &#160;&#160;&#160;&#160;ε &#160;&#160;&#160;&#160;</text>
</g>
<!-- S8 -->
<g id="node11" class="node">
<title>S8</title>
<ellipse fill="none" stroke="black" cx="641.43" cy="-49.61" rx="23" ry="23"/>
<text text-anchor="middle" x="641.43" y="-45.91" font-family="Times,serif" font-size="14.00">S8</text>
</g>
<!-- S7&#45;&gt;S8 -->
<g id="edge14" class="edge">
<title>S7&#45;&gt;S8</title>
<path fill="none" stroke="black" d="M545.78,-35.91C552.03,-38.48 559.03,-41 565.68,-42.61 579.48,-45.96 595.06,-47.73 608.41,-48.65"/>
<polygon fill="black" stroke="black" points="608.39,-52.15 618.57,-49.23 608.78,-45.17 608.39,-52.15"/>
<text text-anchor="middle" x="583.18" y="-52.41" font-family="Times,serif" font-size="14.00">3</text>
</g>
<!-- S9 -->
<g id="node12" class="node">
<title>S9</title>
<ellipse fill="none" stroke="black" cx="775.93" cy="-46.61" rx="23" ry="23"/>
<text text-anchor="middle" x="775.93" y="-42.91" font-family="Times,serif" font-size="14.00">S9</text>
</g>
<!-- S7&#45;&gt;S9 -->
<g id="edge15" class="edge">
<title>S7&#45;&gt;S9</title>
<path fill="none" stroke="black" d="M546.59,-18.35C573.64,-8.6 622.55,5.35 664.18,-2.61 693.39,-8.2 724.71,-21.39 746.56,-31.87"/>
<polygon fill="black" stroke="black" points="745.09,-35.05 755.6,-36.32 748.17,-28.77 745.09,-35.05"/>
<text text-anchor="middle" x="641.43" y="-6.41" font-family="Times,serif" font-size="14.00">ε &#160;&#160;&#160;&#160;&#160;&#160;&#160;</text>
</g>
<!-- S8&#45;&gt;S7 -->
<g id="edge16" class="edge">
<title>S8&#45;&gt;S7</title>
<path fill="none" stroke="black" d="M623.34,-35.32C616.69,-30.63 608.74,-26.02 600.68,-23.61 586.93,-19.52 571.13,-19.51 557.61,-20.83"/>
<polygon fill="black" stroke="black" points="556.82,-17.41 547.34,-22.13 557.69,-24.35 556.82,-17.41"/>
<text text-anchor="middle" x="583.18" y="-27.41" font-family="Times,serif" font-size="14.00"> &#160;&#160;ε &#160;&#160;</text>
</g>
<!-- S8&#45;&gt;S9 -->
<g id="edge17" class="edge">
<title>S8&#45;&gt;S9</title>
<path fill="none" stroke="black" d="M664.31,-49.12C685.69,-48.63 718.49,-47.89 742.83,-47.34"/>
<polygon fill="black" stroke="black" points="743.1,-50.84 753.02,-47.11 742.94,-43.84 743.1,-50.84"/>
<text text-anchor="middle" x="708.68" y="-53.41" font-family="Times,serif" font-size="14.00"> &#160;&#160;&#160;&#160;ε &#160;&#160;&#160;&#160;</text>
</g>
<!-- S9&#45;&gt;S11 -->
<g id="edge18" class="edge">
<title>S9&#45;&gt;S11</title>
<path fill="none" stroke="black" d="M798.05,-53.34C808.64,-56.71 821.82,-60.91 834.23,-64.86"/>
<polygon fill="black" stroke="black" points="833.36,-68.26 843.96,-67.96 835.49,-61.59 833.36,-68.26"/>
<text text-anchor="middle" x="820.67" y="-65.41" font-family="Times,serif" font-size="14.00">ε</text>
</g>
<!-- S10&#45;&gt;S0 -->
<g id="edge20" class="edge">
<title>S10&#45;&gt;S0</title>
<path fill="none" stroke="black" d="M147.48,-110.32C173.84,-116.89 214,-126.91 241.75,-133.83"/>
<polygon fill="black" stroke="black" points="241.17,-137.3 251.72,-136.32 242.87,-130.5 241.17,-137.3"/>
<text text-anchor="middle" x="199.69" y="-134.41" font-family="Times,serif" font-size="14.00"> &#160;&#160;&#160;&#160;ε &#160;&#160;&#160;&#160;</text>
</g>
<!-- S10&#45;&gt;S5 -->
<g id="edge21" class="edge">
<title>S10&#45;&gt;S5</title>
<path fill="none" stroke="black" d="M147.51,-96.14C153.63,-94.55 160.12,-92.95 166.19,-91.61 191.2,-86.11 219.77,-81.09 241.06,-77.59"/>
<polygon fill="black" stroke="black" points="241.86,-81.01 251.17,-75.96 240.74,-74.1 241.86,-81.01"/>
<text text-anchor="middle" x="199.69" y="-95.41" font-family="Times,serif" font-size="14.00"> &#160;&#160;&#160;&#160;&#160;ε &#160;&#160;&#160;&#160;&#160;&#160;</text>
</g>
</g>
</svg>
