<?xml version="1.0" encoding="UTF-8" standalone="no"?>
<!DOCTYPE svg PUBLIC "-//W3C//DTD SVG 1.1//EN"
 "http://www.w3.org/Graphics/SVG/1.1/DTD/svg11.dtd">
<!-- Generated by graphviz version 10.0.1 (20240210.2158)
 -->
<!-- Pages: 1 -->
<svg width="763pt" height="190pt"
 viewBox="0.00 0.00 762.50 190.38" xmlns="http://www.w3.org/2000/svg" xmlns:xlink="http://www.w3.org/1999/xlink">
<g id="graph0" class="graph" transform="scale(1 1) rotate(0) translate(4 186.38)">
<polygon fill="white" stroke="none" points="-4,4 -4,-186.38 758.5,-186.38 758.5,4 -4,4"/>
<!-- start -->
<g id="node1" class="node">
<title>start</title>
<text text-anchor="middle" x="27" y="-91.2" font-family="Times New Roman,serif" font-size="14.00">start</text>
</g>
<!-- S0 -->
<g id="node2" class="node">
<title>S0</title>
<ellipse fill="none" stroke="black" cx="111.63" cy="-96.63" rx="20.63" ry="20.63"/>
<text text-anchor="middle" x="111.63" y="-91.2" font-family="Times New Roman,serif" font-size="14.00">S0</text>
</g>
<!-- start&#45;&gt;S0 -->
<g id="edge1" class="edge">
<title>start&#45;&gt;S0</title>
<path fill="none" stroke="black" d="M53.69,-96.63C61.8,-96.63 70.86,-96.63 79.32,-96.63"/>
<polygon fill="black" stroke="black" points="79.21,-100.13 89.21,-96.63 79.21,-93.13 79.21,-100.13"/>
</g>
<!-- S5 -->
<g id="node3" class="node">
<title>S5</title>
<ellipse fill="none" stroke="black" cx="194.88" cy="-96.63" rx="20.63" ry="20.63"/>
<text text-anchor="middle" x="194.88" y="-91.2" font-family="Times New Roman,serif" font-size="14.00">S5</text>
</g>
<!-- S0&#45;&gt;S5 -->
<g id="edge2" class="edge">
<title>S0&#45;&gt;S5</title>
<path fill="none" stroke="black" d="M132.71,-96.63C141.76,-96.63 152.66,-96.63 162.73,-96.63"/>
<polygon fill="black" stroke="black" points="162.51,-100.13 172.51,-96.63 162.51,-93.13 162.51,-100.13"/>
<text text-anchor="middle" x="153.25" y="-99.08" font-family="Times New Roman,serif" font-size="14.00">ε</text>
</g>
<!-- S1 -->
<g id="node4" class="node">
<title>S1</title>
<ellipse fill="none" stroke="black" cx="281.88" cy="-121.63" rx="20.63" ry="20.63"/>
<text text-anchor="middle" x="281.88" y="-116.2" font-family="Times New Roman,serif" font-size="14.00">S1</text>
</g>
<!-- S5&#45;&gt;S1 -->
<g id="edge7" class="edge">
<title>S5&#45;&gt;S1</title>
<path fill="none" stroke="black" d="M215.16,-102.3C225.71,-105.4 239,-109.31 250.86,-112.8"/>
<polygon fill="black" stroke="black" points="249.63,-116.08 260.21,-115.55 251.61,-109.37 249.63,-116.08"/>
<text text-anchor="middle" x="238.38" y="-112.08" font-family="Times New Roman,serif" font-size="14.00">ε</text>
</g>
<!-- S3 -->
<g id="node7" class="node">
<title>S3</title>
<ellipse fill="none" stroke="black" cx="281.88" cy="-62.63" rx="20.63" ry="20.63"/>
<text text-anchor="middle" x="281.88" y="-57.2" font-family="Times New Roman,serif" font-size="14.00">S3</text>
</g>
<!-- S5&#45;&gt;S3 -->
<g id="edge8" class="edge">
<title>S5&#45;&gt;S3</title>
<path fill="none" stroke="black" d="M214.32,-89.25C225.27,-84.87 239.4,-79.22 251.82,-74.25"/>
<polygon fill="black" stroke="black" points="252.78,-77.63 260.77,-70.67 250.18,-71.13 252.78,-77.63"/>
<text text-anchor="middle" x="238.38" y="-83.08" font-family="Times New Roman,serif" font-size="14.00">ε </text>
</g>
<!-- S7 -->
<g id="node9" class="node">
<title>S7</title>
<ellipse fill="none" stroke="black" cx="557.88" cy="-24.63" rx="20.63" ry="20.63"/>
<text text-anchor="middle" x="557.88" y="-19.2" font-family="Times New Roman,serif" font-size="14.00">S7</text>
</g>
<!-- S5&#45;&gt;S7 -->
<g id="edge9" class="edge">
<title>S5&#45;&gt;S7</title>
<path fill="none" stroke="black" d="M203.79,-77.96C216.15,-52.13 242.64,-8.63 280.88,-8.63 280.88,-8.63 280.88,-8.63 460.63,-8.63 482.83,-8.63 507.52,-12.82 526.34,-16.91"/>
<polygon fill="black" stroke="black" points="525.49,-20.31 536.02,-19.14 527.06,-13.49 525.49,-20.31"/>
<text text-anchor="middle" x="376.38" y="-11.08" font-family="Times New Roman,serif" font-size="14.00">ε &#160;&#160;&#160;&#160;</text>
</g>
<!-- S2 -->
<g id="node5" class="node">
<title>S2</title>
<ellipse fill="none" stroke="black" cx="376.38" cy="-121.63" rx="20.63" ry="20.63"/>
<text text-anchor="middle" x="376.38" y="-116.2" font-family="Times New Roman,serif" font-size="14.00">S2</text>
</g>
<!-- S1&#45;&gt;S2 -->
<g id="edge3" class="edge">
<title>S1&#45;&gt;S2</title>
<path fill="none" stroke="black" d="M302.95,-121.63C314.95,-121.63 330.45,-121.63 344.04,-121.63"/>
<polygon fill="black" stroke="black" points="343.83,-125.13 353.83,-121.63 343.83,-118.13 343.83,-125.13"/>
<text text-anchor="middle" x="329.13" y="-124.08" font-family="Times New Roman,serif" font-size="14.00">0</text>
</g>
<!-- S6 -->
<g id="node6" class="node">
<title>S6</title>
<ellipse fill="none" stroke="black" cx="459.63" cy="-96.63" rx="20.63" ry="20.63"/>
<text text-anchor="middle" x="459.63" y="-91.2" font-family="Times New Roman,serif" font-size="14.00">S6</text>
</g>
<!-- S2&#45;&gt;S6 -->
<g id="edge4" class="edge">
<title>S2&#45;&gt;S6</title>
<path fill="none" stroke="black" d="M396.63,-115.7C406.24,-112.74 418.09,-109.1 428.84,-105.79"/>
<polygon fill="black" stroke="black" points="429.53,-109.24 438.06,-102.95 427.48,-102.55 429.53,-109.24"/>
<text text-anchor="middle" x="418" y="-112.08" font-family="Times New Roman,serif" font-size="14.00">ε</text>
</g>
<!-- S6&#45;&gt;S5 -->
<g id="edge10" class="edge">
<title>S6&#45;&gt;S5</title>
<path fill="none" stroke="black" d="M446.24,-112.9C435.04,-126.16 417.23,-143.91 397,-151.63 340.63,-173.12 318.23,-171.47 261.25,-151.63 244.01,-145.62 228.23,-132.67 216.49,-120.84"/>
<polygon fill="black" stroke="black" points="219.13,-118.54 209.74,-113.65 214.03,-123.33 219.13,-118.54"/>
<text text-anchor="middle" x="329.13" y="-169.08" font-family="Times New Roman,serif" font-size="14.00">ε &#160;&#160;</text>
</g>
<!-- S6&#45;&gt;S7 -->
<g id="edge11" class="edge">
<title>S6&#45;&gt;S7</title>
<path fill="none" stroke="black" d="M476.52,-84.74C491.48,-73.55 514.12,-56.61 531.56,-43.56"/>
<polygon fill="black" stroke="black" points="533.51,-46.47 539.43,-37.68 529.32,-40.87 533.51,-46.47"/>
<text text-anchor="middle" x="508.75" y="-69.08" font-family="Times New Roman,serif" font-size="14.00">ε &#160;&#160;&#160;</text>
</g>
<!-- S4 -->
<g id="node8" class="node">
<title>S4</title>
<ellipse fill="none" stroke="black" cx="376.38" cy="-62.63" rx="20.63" ry="20.63"/>
<text text-anchor="middle" x="376.38" y="-57.2" font-family="Times New Roman,serif" font-size="14.00">S4</text>
</g>
<!-- S3&#45;&gt;S4 -->
<g id="edge5" class="edge">
<title>S3&#45;&gt;S4</title>
<path fill="none" stroke="black" d="M302.95,-62.63C314.95,-62.63 330.45,-62.63 344.04,-62.63"/>
<polygon fill="black" stroke="black" points="343.83,-66.13 353.83,-62.63 343.83,-59.13 343.83,-66.13"/>
<text text-anchor="middle" x="329.13" y="-65.08" font-family="Times New Roman,serif" font-size="14.00">1</text>
</g>
<!-- S4&#45;&gt;S6 -->
<g id="edge6" class="edge">
<title>S4&#45;&gt;S6</title>
<path fill="none" stroke="black" d="M395.81,-70.34C405.89,-74.56 418.59,-79.87 429.94,-84.62"/>
<polygon fill="black" stroke="black" points="428.29,-87.72 438.87,-88.36 430.99,-81.27 428.29,-87.72"/>
<text text-anchor="middle" x="418" y="-83.08" font-family="Times New Roman,serif" font-size="14.00">ε</text>
</g>
<!-- S8 -->
<g id="node10" class="node">
<title>S8</title>
<ellipse fill="none" stroke="black" cx="641.88" cy="-24.63" rx="20.63" ry="20.63"/>
<text text-anchor="middle" x="641.88" y="-19.2" font-family="Times New Roman,serif" font-size="14.00">S8</text>
</g>
<!-- S7&#45;&gt;S8 -->
<g id="edge12" class="edge">
<title>S7&#45;&gt;S8</title>
<path fill="none" stroke="black" d="M578.73,-24.63C588.03,-24.63 599.32,-24.63 609.72,-24.63"/>
<polygon fill="black" stroke="black" points="609.41,-28.13 619.41,-24.63 609.41,-21.13 609.41,-28.13"/>
<text text-anchor="middle" x="599.88" y="-27.08" font-family="Times New Roman,serif" font-size="14.00">1</text>
</g>
<!-- S9 -->
<g id="node11" class="node">
<title>S9</title>
<ellipse fill="none" stroke="black" cx="729.88" cy="-24.63" rx="20.63" ry="20.63"/>
<ellipse fill="none" stroke="black" cx="729.88" cy="-24.63" rx="24.63" ry="24.63"/>
<text text-anchor="middle" x="729.88" y="-19.2" font-family="Times New Roman,serif" font-size="14.00">S9</text>
</g>
<!-- S8&#45;&gt;S9 -->
<g id="edge13" class="edge">
<title>S8&#45;&gt;S9</title>
<path fill="none" stroke="black" d="M662.82,-24.63C671.98,-24.63 683.12,-24.63 693.62,-24.63"/>
<polygon fill="black" stroke="black" points="693.55,-28.13 703.55,-24.63 693.55,-21.13 693.55,-28.13"/>
<text text-anchor="middle" x="683.88" y="-27.08" font-family="Times New Roman,serif" font-size="14.00">0</text>
</g>
</g>
</svg>
